<svg width="154" height="28" viewBox="0 0 154 28" fill="none" xmlns="http://www.w3.org/2000/svg">
<path d="M23.1527 21.1943H31.1478L11.3423 1.38867H3.34717L23.1527 21.1943Z" fill="#8B8B8B"/>
<path d="M15.4497 1.38867L34.5419 20.4809V1.38867H29.3752V7.41644L23.3474 1.38867L15.4497 1.38867Z" fill="#8B8B8B"/>
<path d="M0 2.05188V21.1943H5.16667V15.1665L11.1944 21.1943H19.1425L0 2.05188Z" fill="#8B8B8B"/>
<path d="M47.0096 18.2164H51.6389V20.9444H43.4756V6.4364H47.0096V18.2164Z" fill="#8B8B8B"/>
<path d="M57.954 21.1098C56.8242 21.1098 55.8046 20.8687 54.8953 20.3864C53.9997 19.9042 53.2902 19.2153 52.7666 18.3198C52.2569 17.4242 52.002 16.3771 52.002 15.1784C52.002 13.9936 52.2637 12.9533 52.7873 12.0578C53.3109 11.1484 54.0273 10.4526 54.9366 9.9704C55.846 9.48818 56.8655 9.24707 57.9953 9.24707C59.1251 9.24707 60.1446 9.48818 61.054 9.9704C61.9633 10.4526 62.6797 11.1484 63.2033 12.0578C63.7269 12.9533 63.9886 13.9936 63.9886 15.1784C63.9886 16.3633 63.72 17.4104 63.1826 18.3198C62.6591 19.2153 61.9356 19.9042 61.0126 20.3864C60.1033 20.8687 59.0837 21.1098 57.954 21.1098ZM57.954 18.0511C58.6291 18.0511 59.2009 17.8031 59.6693 17.3071C60.1515 16.8111 60.3926 16.1016 60.3926 15.1784C60.3926 14.2553 60.1584 13.5458 59.69 13.0498C59.2353 12.5538 58.6704 12.3058 57.9953 12.3058C57.3064 12.3058 56.7346 12.5538 56.28 13.0498C55.8253 13.532 55.5979 14.2416 55.5979 15.1784C55.5979 16.1016 55.8184 16.8111 56.2593 17.3071C56.714 17.8031 57.2789 18.0511 57.954 18.0511Z" fill="#8B8B8B"/>
<path d="M69.625 9.24707C70.4379 9.24707 71.1475 9.4124 71.7537 9.74307C72.3737 10.0737 72.849 10.5078 73.1797 11.0451V9.4124H76.7137V20.9238C76.7137 21.9847 76.5001 22.9422 76.073 23.7964C75.6597 24.6644 75.019 25.3533 74.151 25.8631C73.2968 26.3729 72.229 26.6278 70.9477 26.6278C69.2392 26.6278 67.8546 26.2213 66.7937 25.4084C65.7328 24.6093 65.1266 23.5209 64.975 22.1431H68.4677C68.5779 22.584 68.8397 22.9284 69.253 23.1764C69.6664 23.4382 70.1761 23.5691 70.7824 23.5691C71.5126 23.5691 72.0912 23.3556 72.5184 22.9284C72.9592 22.5151 73.1797 21.8469 73.1797 20.9238V19.2911C72.8352 19.8284 72.3599 20.2693 71.7537 20.6138C71.1475 20.9444 70.4379 21.1098 69.625 21.1098C68.6744 21.1098 67.8132 20.8687 67.0417 20.3864C66.2701 19.8904 65.657 19.1947 65.2024 18.2991C64.7615 17.3898 64.541 16.3427 64.541 15.1578C64.541 13.9729 64.7615 12.9327 65.2024 12.0371C65.657 11.1416 66.2701 10.4526 67.0417 9.9704C67.8132 9.48818 68.6744 9.24707 69.625 9.24707ZM73.1797 15.1784C73.1797 14.2967 72.9317 13.6009 72.4357 13.0911C71.9535 12.5813 71.361 12.3264 70.6584 12.3264C69.9557 12.3264 69.3564 12.5813 68.8604 13.0911C68.3781 13.5871 68.137 14.276 68.137 15.1578C68.137 16.0396 68.3781 16.7422 68.8604 17.2658C69.3564 17.7756 69.9557 18.0304 70.6584 18.0304C71.361 18.0304 71.9535 17.7756 72.4357 17.2658C72.9317 16.756 73.1797 16.0602 73.1797 15.1784Z" fill="#8B8B8B"/>
<path d="M83.8997 21.1098C82.7699 21.1098 81.7504 20.8687 80.841 20.3864C79.9455 19.9042 79.236 19.2153 78.7125 18.3198C78.2027 17.4242 77.9478 16.3771 77.9478 15.1784C77.9478 13.9936 78.2096 12.9533 78.7331 12.0578C79.2567 11.1484 79.9731 10.4526 80.8825 9.9704C81.7918 9.48818 82.8114 9.24707 83.9411 9.24707C85.0709 9.24707 86.0905 9.48818 86.9998 9.9704C87.9091 10.4526 88.6256 11.1484 89.1491 12.0578C89.6727 12.9533 89.9345 13.9936 89.9345 15.1784C89.9345 16.3633 89.6658 17.4104 89.1285 18.3198C88.6049 19.2153 87.8815 19.9042 86.9585 20.3864C86.0491 20.8687 85.0295 21.1098 83.8997 21.1098ZM83.8997 18.0511C84.5748 18.0511 85.1467 17.8031 85.6151 17.3071C86.0974 16.8111 86.3385 16.1016 86.3385 15.1784C86.3385 14.2553 86.1042 13.5458 85.6357 13.0498C85.181 12.5538 84.6163 12.3058 83.9411 12.3058C83.2523 12.3058 82.6805 12.5538 82.2258 13.0498C81.7711 13.532 81.5438 14.2416 81.5438 15.1784C81.5438 16.1016 81.7643 16.8111 82.2051 17.3071C82.6598 17.8031 83.2246 18.0511 83.8997 18.0511Z" fill="#8B8B8B"/>
<path d="M92.9664 8.21372C92.3464 8.21372 91.8366 8.0346 91.437 7.67638C91.0513 7.30438 90.8584 6.84972 90.8584 6.31238C90.8584 5.76127 91.0513 5.3066 91.437 4.94838C91.8366 4.57638 92.3464 4.39038 92.9664 4.39038C93.5726 4.39038 94.0686 4.57638 94.4544 4.94838C94.8539 5.3066 95.0537 5.76127 95.0537 6.31238C95.0537 6.84972 94.8539 7.30438 94.4544 7.67638C94.0686 8.0346 93.5726 8.21372 92.9664 8.21372ZM94.723 9.41238V20.9443H91.189V9.41238H94.723Z" fill="#8B8B8B"/>
<path d="M100.198 11.0451C100.543 10.5078 101.018 10.0737 101.624 9.74307C102.23 9.4124 102.94 9.24707 103.753 9.24707C104.704 9.24707 105.565 9.48818 106.336 9.9704C107.108 10.4526 107.714 11.1416 108.155 12.0371C108.61 12.9327 108.837 13.9729 108.837 15.1578C108.837 16.3427 108.61 17.3898 108.155 18.2991C107.714 19.1947 107.108 19.8904 106.336 20.3864C105.565 20.8687 104.704 21.1098 103.753 21.1098C102.954 21.1098 102.244 20.9444 101.624 20.6138C101.018 20.2831 100.543 19.856 100.198 19.3324V26.4418H96.6641V9.4124H100.198V11.0451ZM105.241 15.1578C105.241 14.276 104.993 13.5871 104.497 13.0911C104.015 12.5813 103.415 12.3264 102.699 12.3264C101.996 12.3264 101.397 12.5813 100.901 13.0911C100.419 13.6009 100.178 14.2967 100.178 15.1784C100.178 16.0602 100.419 16.756 100.901 17.2658C101.397 17.7756 101.996 18.0304 102.699 18.0304C103.402 18.0304 104.001 17.7756 104.497 17.2658C104.993 16.7422 105.241 16.0396 105.241 15.1578Z" fill="#8B8B8B"/>
<path d="M114.762 21.1098C113.756 21.1098 112.861 20.9376 112.076 20.5931C111.29 20.2487 110.67 19.7802 110.216 19.1878C109.761 18.5816 109.506 17.9064 109.451 17.1624H112.944C112.985 17.562 113.171 17.8858 113.502 18.1338C113.832 18.3818 114.239 18.5058 114.721 18.5058C115.162 18.5058 115.499 18.4231 115.734 18.2578C115.982 18.0787 116.106 17.8513 116.106 17.5758C116.106 17.2451 115.933 17.004 115.589 16.8524C115.244 16.6871 114.686 16.508 113.915 16.3151C113.088 16.1222 112.399 15.9224 111.848 15.7158C111.297 15.4953 110.822 15.1578 110.422 14.7031C110.023 14.2347 109.823 13.6078 109.823 12.8224C109.823 12.1611 110.002 11.5618 110.36 11.0244C110.732 10.4733 111.27 10.0393 111.972 9.7224C112.689 9.40551 113.536 9.24707 114.514 9.24707C115.961 9.24707 117.098 9.60529 117.924 10.3217C118.765 11.0382 119.247 11.9889 119.371 13.1738H116.106C116.05 12.7742 115.871 12.4573 115.568 12.2231C115.279 11.9889 114.893 11.8718 114.411 11.8718C113.998 11.8718 113.681 11.9544 113.46 12.1198C113.24 12.2713 113.13 12.4849 113.13 12.7604C113.13 13.0911 113.302 13.3391 113.646 13.5044C114.004 13.6698 114.556 13.8351 115.3 14.0004C116.154 14.2209 116.85 14.4413 117.387 14.6618C117.924 14.8684 118.393 15.2129 118.792 15.6951C119.206 16.1636 119.419 16.7973 119.433 17.5964C119.433 18.2716 119.24 18.8778 118.854 19.4151C118.482 19.9387 117.938 20.352 117.222 20.6551C116.519 20.9582 115.699 21.1098 114.762 21.1098Z" fill="#8B8B8B"/>
<path d="M132.362 9.41248V20.9444H128.828V19.3738C128.47 19.8836 127.981 20.2969 127.361 20.6138C126.755 20.9169 126.08 21.0684 125.336 21.0684C124.454 21.0684 123.675 20.8756 123 20.4898C122.325 20.0902 121.802 19.5184 121.43 18.7744C121.058 18.0304 120.872 17.1556 120.872 16.1498V9.41248H124.385V15.6744C124.385 16.446 124.585 17.0453 124.984 17.4724C125.384 17.8996 125.921 18.1131 126.596 18.1131C127.285 18.1131 127.829 17.8996 128.229 17.4724C128.629 17.0453 128.828 16.446 128.828 15.6744V9.41248H132.362Z" fill="#8B8B8B"/>
<path d="M148.995 9.28845C150.428 9.28845 151.565 9.72245 152.405 10.5904C153.26 11.4584 153.687 12.664 153.687 14.2071V20.9444H150.173V14.6824C150.173 13.9384 149.974 13.3667 149.574 12.9671C149.188 12.5538 148.651 12.3471 147.962 12.3471C147.273 12.3471 146.729 12.5538 146.329 12.9671C145.944 13.3667 145.751 13.9384 145.751 14.6824V20.9444H142.237V14.6824C142.237 13.9384 142.038 13.3667 141.638 12.9671C141.252 12.5538 140.715 12.3471 140.026 12.3471C139.337 12.3471 138.793 12.5538 138.393 12.9671C138.008 13.3667 137.815 13.9384 137.815 14.6824V20.9444H134.281V9.41245H137.815V10.8591C138.173 10.3769 138.641 9.99801 139.22 9.72245C139.799 9.43312 140.453 9.28845 141.183 9.28845C142.051 9.28845 142.823 9.47445 143.498 9.84645C144.187 10.2185 144.724 10.7489 145.11 11.4378C145.51 10.804 146.054 10.2873 146.743 9.88779C147.432 9.48823 148.183 9.28845 148.995 9.28845Z" fill="#8B8B8B"/>
</svg>
