<svg width="24" height="24" viewBox="0 0 24 24" fill="none" xmlns="http://www.w3.org/2000/svg">
<path d="M19.0698 19.82C18.8798 19.82 18.6898 19.75 18.5398 19.6C18.2498 19.31 18.2498 18.83 18.5398 18.54C22.1498 14.93 22.1498 9.05999 18.5398 5.46C18.2498 5.17 18.2498 4.69 18.5398 4.4C18.8298 4.11 19.3098 4.11 19.5998 4.4C23.7898 8.59 23.7898 15.41 19.5998 19.6C19.4498 19.75 19.2598 19.82 19.0698 19.82Z" fill="white"/>
<path d="M4.92982 19.82C4.73982 19.82 4.54982 19.75 4.39982 19.6C0.209824 15.41 0.209824 8.59 4.39982 4.4C4.68982 4.11 5.16982 4.11 5.45982 4.4C5.74982 4.69 5.74982 5.17 5.45982 5.46C1.84982 9.06999 1.84982 14.94 5.45982 18.54C5.74982 18.83 5.74982 19.31 5.45982 19.6C5.30982 19.75 5.11982 19.82 4.92982 19.82Z" fill="white"/>
<path d="M11.9998 22.71C10.7498 22.7 9.55976 22.5 8.44976 22.11C8.05976 21.97 7.84976 21.54 7.98976 21.15C8.12976 20.76 8.54976 20.55 8.94976 20.69C9.90976 21.02 10.9298 21.2 12.0098 21.2C13.0798 21.2 14.1098 21.02 15.0598 20.69C15.4498 20.56 15.8798 20.76 16.0198 21.15C16.1598 21.54 15.9498 21.97 15.5598 22.11C14.4398 22.5 13.2498 22.71 11.9998 22.71Z" fill="white"/>
<path d="M15.2998 3.34001C15.2198 3.34001 15.1298 3.33001 15.0498 3.30001C14.0998 2.96001 13.0698 2.79001 11.9998 2.79001C10.9298 2.79001 9.90976 2.97001 8.94976 3.30001C8.54976 3.43001 8.12976 3.23001 7.98976 2.84001C7.84976 2.45001 8.05976 2.02001 8.44976 1.88001C9.56976 1.49001 10.7598 1.29001 11.9998 1.29001C13.2398 1.29001 14.4398 1.49001 15.5498 1.88001C15.9398 2.02001 16.1498 2.45001 16.0098 2.84001C15.8998 3.15001 15.6098 3.34001 15.2998 3.34001Z" fill="white"/>
<path d="M8.74023 12V10.33C8.74023 8.24999 10.2102 7.39999 12.0102 8.43999L13.4602 9.27999L14.9102 10.12C16.7102 11.16 16.7102 12.86 14.9102 13.9L13.4602 14.74L12.0102 15.58C10.2102 16.62 8.74023 15.77 8.74023 13.69V12Z" fill="white"/>
</svg>
